PathFileType	4	(X/Y/Z)	D:\Share\Shared_Data\Ergonomics\Sit To Stand Pertubation\S0\Perturbed STS.trc
DataRate	CameraRate	NumFrames	NumMarkers	Units	OrigDataRate	OrigDataStartFrame	OrigNumFrames	
100	100	19	18	m	100	17467	251
Frame#	Time	R_Heel			R_ASIS			R_Pelvis			V_Sacral			L_Pelvis			L_ASIS			Clavical			R_Acromium			L_Acromium			Sternum			Torso			R_Thigh_Med			R_Thigh_Lat			R_Thigh			R_Shank_Med			R_Shank_Lat			R_Shank			R_Toe			
		X1	Y1	Z1	X2	Y2	Z2	X3	Y3	Z3	X4	Y4	Z4	X5	Y5	Z5	X6	Y6	Z6	X7	Y7	Z7	X8	Y8	Z8	X9	Y9	Z9	X10	Y10	Z10	X11	Y11	Z11	X12	Y12	Z12	X13	Y13	Z13	X14	Y14	Z14	X15	Y15	Z15	X16	Y16	Z16	X17	Y17	Z17	X18	Y18	Z18	

17467	131.01	0.15422479	0.04680291	0.11391071	-0.015250662	0.73831915	0.1464595	-0.14837737	0.71907758	0.18922961	-0.26302921	0.68440356	-0.041349644	-0.11743128	0.70589996	-0.21650978	0.0031579115	0.7285144	-0.17011496	0.057845001	1.0903792	-0.027212214	-0.0104146	1.1686244	0.1118148	-0.016051287	1.1693739	-0.17826288	0.070577721	0.99297382	-0.04262912	0.054628757	1.040715	-0.14779393	0.32151859	0.48922385	0.055290516	0.30382422	0.50504272	0.18934782	0.22982872	0.64053271	0.10713049	0.25581145	0.1043484	0.074362083	0.19664362	0.088443611	0.16252379	0.26214642	0.30787213	0.19305988	0.37836829	0.048463951	0.11061411
17468	131.02	0.15421994	0.046753963	0.11389721	-0.014293828	0.73830945	0.14645384	-0.14773163	0.71945294	0.18924857	-0.26256421	0.68523206	-0.04133971	-0.11687807	0.70630902	-0.21653616	0.0038880665	0.72828821	-0.17010191	0.061549316	1.0891912	-0.027134935	-0.0059940772	1.167996	0.11188476	-0.01166313	1.1687891	-0.17812605	0.073549637	0.99168036	-0.042530861	0.05793961	1.0395497	-0.14767471	0.32146005	0.48911221	0.05528957	0.30386145	0.50496973	0.18933635	0.2299646	0.64042944	0.10711539	0.25586829	0.10434993	0.074343491	0.19662947	0.088403595	0.16250148	0.26211316	0.30784457	0.19304213	0.37836102	0.048447887	0.11062672
17469	131.03	0.15421553	0.046698044	0.11388161	-0.013367429	0.73826117	0.146468	-0.14705124	0.71985468	0.18927141	-0.26206238	0.68610016	-0.041331444	-0.11628714	0.70673322	-0.21656584	0.0046572089	0.72805548	-0.17008296	0.065384056	1.0879563	-0.027053097	-0.0014371487	1.1673219	0.11195864	-0.0071348681	1.1681667	-0.17798203	0.076626396	0.99034467	-0.042429337	0.061361721	1.0383441	-0.14755179	0.32139801	0.4889931	0.055279675	0.30391129	0.50489069	0.18931668	0.23012021	0.64033057	0.10710214	0.25590938	0.10433773	0.074320923	0.19661552	0.088360115	0.16247568	0.26208289	0.30781421	0.19301808	0.37835461	0.048431847	0.11063763
17470	131.04	0.15421121	0.046634487	0.11386362	-0.012471287	0.738172	0.14650288	-0.14633344	0.72028491	0.18929771	-0.26152209	0.68701093	-0.041324558	-0.11565608	0.70717438	-0.21659769	0.0054689841	0.72781635	-0.17005775	0.069347	1.086671	-0.026966368	0.0032594972	1.1666027	0.11203432	-0.0024667964	1.1675068	-0.17783142	0.079807495	0.98896667	-0.042326214	0.064897659	1.0370992	-0.14742517	0.32133344	0.48886426	0.055260483	0.30397556	0.5048042	0.18928853	0.23029637	0.64023651	0.10708842	0.25593376	0.10430977	0.074292747	0.19660161	0.088312019	0.16244527	0.26205664	0.30777927	0.19298705	0.37834906	0.048414463	0.11064604
17471	131.05	0.15420703	0.046563541	0.11384249	-0.011605661	0.7380379	0.14655852	-0.14557536	0.7207467	0.18932678	-0.26094153	0.68796655	-0.041318905	-0.11498145	0.70763348	-0.21662929	0.0063281898	0.72757056	-0.1700266	0.073435059	1.0853324	-0.026875454	0.0080992155	1.165838	0.11210986	0.0023414245	1.1668079	-0.17767557	0.083090561	0.9875459	-0.042223534	0.068549706	1.0358156	-0.14729495	0.32126791	0.48872375	0.055232155	0.30405536	0.50470828	0.18925208	0.23049373	0.64014642	0.10707244	0.25594377	0.10426572	0.074257347	0.19658803	0.088258591	0.16240851	0.26203601	0.3077377	0.19294814	0.37834534	0.04839381	0.11065206
17472	131.06	0.1542034	0.046486244	0.11381706	-0.010774854	0.73785138	0.14663416	-0.14477422	0.72124292	0.18935739	-0.2603186	0.68896863	-0.041314651	-0.11425925	0.70811182	-0.21665825	0.0072399178	0.72731757	-0.16999017	0.077647766	1.0839391	-0.026781988	0.013084821	1.1650275	0.1121838	0.0072908645	1.166069	-0.17751619	0.08647094	0.98608105	-0.042123135	0.072319397	1.0344922	-0.14716145	0.32120319	0.48857013	0.055195496	0.30415167	0.50460123	0.18920818	0.23071317	0.64005951	0.10705318	0.25594374	0.10420654	0.074213364	0.19657559	0.088199844	0.16236359	0.26202335	0.30768793	0.19290057	0.37834497	0.048368355	0.1106563
17473	131.07	0.1542007	0.046403854	0.1137857	-0.0099871969	0.73760217	0.14672813	-0.14392714	0.72177667	0.18938783	-0.25965109	0.69001843	-0.041312412	-0.11348612	0.70860992	-0.21668404	0.008208746	0.72705725	-0.16994958	0.08198735	1.0824902	-0.026687805	0.018218315	1.1641704	0.11225534	0.012383274	1.1652874	-0.17735513	0.089941658	0.9845705	-0.042026329	0.076206909	1.0331266	-0.14702528	0.3211416	0.48840305	0.055151985	0.30426526	0.50448203	0.18915845	0.23095576	0.63997424	0.10702981	0.25593845	0.10413406	0.074159859	0.19656537	0.08813662	0.16230902	0.2620217	0.30762885	0.19284415	0.3783497	0.048337307	0.11065939
17474	131.08	0.15419864	0.04631741	0.11374664	-0.0092502413	0.73728082	0.14683794	-0.14303079	0.72234991	0.18941615	-0.25893704	0.69111664	-0.041313118	-0.11265908	0.7091286	-0.21670741	0.0092385654	0.72678961	-0.16990652	0.086456367	1.0809846	-0.026594139	0.023500568	1.163264	0.11232413	0.017620865	1.1644603	-0.17719368	0.093494324	0.98301196	-0.041933697	0.080211365	1.0317163	-0.14688705	0.32108594	0.48822345	0.055103886	0.30439685	0.50435095	0.18910527	0.23122249	0.63988855	0.1070009	0.25593153	0.10405066	0.074096481	0.19655803	0.088070206	0.16224413	0.26203366	0.30755988	0.19277954	0.37836053	0.048300709	0.11066162
17475	131.09	0.15419572	0.046227535	0.11369858	-0.008561471	0.73688708	0.14696028	-0.14208127	0.72296344	0.18944046	-0.25817487	0.69226398	-0.041317844	-0.11177523	0.7096687	-0.21672868	0.010331846	0.72651544	-0.16986272	0.09105603	1.0794205	-0.026501144	0.028931126	1.1623059	0.11239019	0.023005854	1.1635833	-0.17703281	0.097119728	0.98140253	-0.04184502	0.084331131	1.0302574	-0.14674709	0.32103949	0.48803357	0.055054379	0.304547	0.50420923	0.18905194	0.23151413	0.63980005	0.10696391	0.25592523	0.10395897	0.074023392	0.19655347	0.088001823	0.16216948	0.26206082	0.30748154	0.1927083	0.37837744	0.048259384	0.11066312
17476	131.1	0.15418912	0.046134258	0.11364062	-0.0078956819	0.73644189	0.14709108	-0.1410744	0.72361676	0.18945883	-0.25736337	0.69346118	-0.041327492	-0.11083217	0.7102309	-0.21674828	0.011488888	0.72623596	-0.1698196	0.095785851	1.0777953	-0.026407877	0.034508396	1.1612928	0.11245391	0.028539898	1.1626521	-0.17687311	0.10080741	0.97973822	-0.041759529	0.08856414	1.0287456	-0.14660526	0.32100604	0.48783591	0.055007393	0.30471594	0.5040592	0.18900252	0.23183125	0.63970605	0.10691582	0.25591994	0.10386155	0.073941414	0.19655092	0.087932198	0.16208675	0.26210309	0.3073945	0.19263319	0.37839874	0.048214756	0.11066397
17477	131.11	0.15417502	0.046037052	0.11357234	-0.007198287	0.73599475	0.14722581	-0.14000626	0.72430896	0.18946988	-0.25650146	0.69470905	-0.041342579	-0.10982866	0.71081525	-0.2167673	0.012708083	0.72595239	-0.16977789	0.10064375	1.0761053	-0.026312592	0.040230068	1.16022	0.11251589	0.034223896	1.1616622	-0.17671487	0.10454723	0.97801447	-0.041676125	0.092908112	1.0271754	-0.14646082	0.32098932	0.48763254	0.054967335	0.30490396	0.5039035	0.18896144	0.2321749	0.63960468	0.10685533	0.25591484	0.10376075	0.073852127	0.19654892	0.087861435	0.16199847	0.26215857	0.30729993	0.19255812	0.37842224	0.048168686	0.11066471
17478	131.12	0.15414989	0.045935448	0.11349397	-0.0064021182	0.73560693	0.14736055	-0.13887364	0.72503894	0.18947305	-0.25558826	0.69600903	-0.041363106	-0.10876453	0.71142163	-0.2167872	0.013986358	0.72566498	-0.16973752	0.10562632	1.0743469	-0.026213049	0.046093353	1.1590822	0.11257673	0.040058075	1.1606073	-0.17655779	0.10833406	0.97622723	-0.041593098	0.097361038	1.0255415	-0.14631252	0.32099338	0.48742444	0.054938591	0.30511215	0.50374521	0.18893295	0.23254668	0.63949597	0.10678493	0.25590849	0.10365868	0.073757828	0.19654568	0.087789246	0.16190791	0.26222455	0.30719879	0.19248755	0.37844531	0.048123367	0.1106663
17479	131.13	0.15411168	0.045829636	0.11340694	-0.0054593315	0.73532031	0.14749362	-0.13767401	0.72580511	0.18946881	-0.25462276	0.69736304	-0.041388622	-0.1076404	0.71204877	-0.21680925	0.015318931	0.72537335	-0.16969728	0.11072903	1.0725146	-0.026106777	0.052095196	1.1578733	0.11263683	0.046041508	1.1594803	-0.1764008	0.11217326	0.97437341	-0.041507832	0.10192201	1.0238387	-0.14615886	0.3210224	0.48721191	0.054925186	0.30534296	0.50358676	0.18892047	0.23294814	0.63938232	0.10671143	0.25589937	0.10355705	0.073661293	0.19653947	0.087715485	0.16181831	0.26229828	0.30709216	0.19242583	0.37846564	0.048080891	0.11066973
17480	131.14	0.15406133	0.04572047	0.11331474	-0.0043550749	0.73514429	0.14762633	-0.13640546	0.72660547	0.1894583	-0.25360379	0.69877222	-0.041418312	-0.10645718	0.71269489	-0.21683382	0.016698927	0.72507648	-0.16965498	0.11594659	1.0706038	-0.025991301	0.058232265	1.1565868	0.11269624	0.052170685	1.1582728	-0.17624239	0.11607977	0.97245087	-0.041417316	0.106592	1.0220634	-0.14599876	0.32108051	0.48699533	0.054930443	0.30559967	0.50343048	0.18892632	0.23338069	0.63926831	0.1066444	0.25588638	0.10345715	0.07356546	0.19652916	0.087640549	0.16173276	0.26237836	0.3069808	0.19237651	0.37848129	0.048042873	0.11067548
17481	131.15	0.1540036	0.045609394	0.11322327	-0.003098335	0.73506366	0.14776199	-0.13506589	0.72743835	0.18944304	-0.25252942	0.70023712	-0.041450928	-0.10521544	0.71335742	-0.21686012	0.018117899	0.72477283	-0.16960767	0.12127381	1.0686083	-0.025864307	0.064500793	1.1552172	0.11275472	0.058438671	1.1569792	-0.17608044	0.12007043	0.9704585	-0.041319263	0.11137318	1.0202123	-0.14583162	0.32117114	0.48677591	0.05495665	0.30588586	0.50327826	0.18895171	0.23384534	0.63915942	0.1065929	0.25586906	0.10335992	0.0734729	0.19651456	0.08756514	0.16165401	0.26246524	0.3068653	0.1923418	0.3784913	0.048010319	0.11068321
17482	131.16	0.15394601	0.045497997	0.11313988	-0.0017005668	0.73505933	0.14790356	-0.13365314	0.72830133	0.1894252	-0.2513969	0.70175714	-0.041484692	-0.10391454	0.71403375	-0.21688637	0.019567909	0.72446008	-0.1695524	0.12670638	1.0665244	-0.025723822	0.070897263	1.153761	0.11281174	0.064835876	1.1555963	-0.1759126	0.12415965	0.96839636	-0.041212902	0.11626695	1.0182838	-0.14565721	0.32129587	0.48655545	0.055004677	0.30620386	0.50313104	0.18899687	0.23434276	0.63906055	0.10656347	0.25584772	0.10326608	0.073385406	0.1964964	0.087489838	0.16158418	0.26256094	0.30674597	0.19232246	0.37849573	0.04798365	0.110692
17483	131.17	0.15389584	0.045387516	0.11307081	-0.00014855364	0.73513556	0.14805022	-0.13216495	0.72919293	0.18940723	-0.25020262	0.70333069	-0.041516979	-0.10255186	0.71472113	-0.21691011	0.021044746	0.7241355	-0.16948682	0.13224135	1.0643496	-0.025568605	0.077419373	1.1522168	0.11286649	0.07135276	1.1541249	-0.17573656	0.12836143	0.96626678	-0.04109911	0.12127149	1.016277	-0.14547571	0.32145374	0.48633618	0.055073803	0.3065528	0.50298804	0.18906123	0.23487396	0.63897662	0.10656055	0.2558231	0.10317611	0.073303848	0.19647598	0.087414894	0.16152463	0.26266824	0.30662305	0.19231779	0.37849533	0.047962784	0.11070055
17484	131.18	0.1538577	0.045278763	0.1130194	0.0015876069	0.73531805	0.14819687	-0.13059909	0.73011169	0.18939137	-0.24894217	0.70495648	-0.041544411	-0.10112295	0.71541785	-0.21692828	0.022550497	0.72379645	-0.16940985	0.13787747	1.062084	-0.02539863	0.084066353	1.1505848	0.11291806	0.077983231	1.1525686	-0.17555103	0.13268927	0.96407318	-0.040980068	0.12638153	1.0141926	-0.14528804	0.32164124	0.48612003	0.055161736	0.30692847	0.50284671	0.18914375	0.2354416	0.63891296	0.1065871	0.25579625	0.10309013	0.073228264	0.19645485	0.087340271	0.16147528	0.26279016	0.3064968	0.1923261	0.37849155	0.047947197	0.11070772
17485	131.19	0.15383273	0.045172367	0.11298586	0.0034989688	0.73560486	0.14833827	-0.12895377	0.7310575	0.18937914	-0.24761089	0.70663324	-0.041563839	-0.099622559	0.71612244	-0.21693843	0.024094051	0.72343909	-0.16932225	0.14361534	1.0597285	-0.02521559	0.090839088	1.1488662	0.11296536	0.084726814	1.1509329	-0.17535646	0.1371508	0.96181842	-0.040858727	0.13159021	1.012033	-0.14509637	0.32185352	0.48590854	0.055265087	0.30732352	0.50270212	0.18924254	0.2360499	0.63887439	0.10664416	0.25576869	0.10300797	0.073158035	0.19643457	0.087265923	0.16143489	0.2629292	0.30636804	0.19234511	0.37848602	0.047935673	0.11071293
